<svg width="505" height="59" viewBox="0 0 505 59" fill="none" xmlns="http://www.w3.org/2000/svg">
<path d="M26.446 35.886C27.854 35.754 29.284 35.82 30.736 36.084C32.188 36.348 33.332 36.744 34.168 37.272C33.816 42.42 32.166 46.38 29.218 49.152C26.27 51.924 22.2 53.31 17.008 53.31C11.816 53.31 7.768 51.572 4.864 48.096C2.004 44.576 0.574 39.626 0.574 33.246C0.574 25.238 2.554 18.572 6.514 13.248C10.518 7.924 15.6 5.262 21.76 5.262C25.764 5.262 28.866 6.516 31.066 9.024C33.266 11.532 34.476 15.162 34.696 19.914C33.024 20.706 31.528 21.234 30.208 21.498C28.888 21.762 27.26 21.872 25.324 21.828C25.412 18.352 25.016 15.778 24.136 14.106C23.3 12.39 21.958 11.532 20.11 11.532C17.69 11.532 15.622 13.38 13.906 17.076C12.234 20.772 11.398 25.37 11.398 30.87C11.398 36.018 12.08 39.978 13.444 42.75C14.852 45.478 16.854 46.842 19.45 46.842C21.914 46.842 23.762 45.874 24.994 43.938C26.226 41.958 26.71 39.274 26.446 35.886ZM74.6848 3.546C75.0368 10.806 75.3228 19.32 75.5428 29.088C75.8068 38.856 75.9388 47.436 75.9388 54.828C74.2668 54.828 72.4408 54.718 70.4608 54.498C68.5248 54.322 67.0728 54.102 66.1048 53.838C66.1048 50.318 66.0828 46.512 66.0388 42.42C65.9948 38.328 65.9288 34.39 65.8408 30.606C63.1568 30.65 60.5828 30.76 58.1188 30.936C55.6548 31.068 53.3008 31.266 51.0568 31.53C51.0128 34.698 50.9908 37.888 50.9908 41.1C51.0348 44.268 51.1008 47.15 51.1888 49.746C50.2648 50.01 48.9228 50.252 47.1628 50.472C45.4468 50.648 43.8848 50.714 42.4768 50.67C41.7728 41.21 41.2448 32.718 40.8928 25.194C40.5848 17.626 40.4308 11.048 40.4308 5.46C41.2228 4.976 42.1908 4.602 43.3348 4.338C44.5228 4.03 45.7328 3.876 46.9648 3.876C47.8448 3.876 48.6808 3.942 49.4728 4.074C50.2648 4.162 51.0568 4.316 51.8488 4.536C51.6728 6.78 51.5188 9.64 51.3868 13.116C51.2548 16.548 51.1668 20.222 51.1228 24.138C53.4548 23.698 55.8088 23.368 58.1848 23.148C60.6048 22.928 63.1128 22.774 65.7088 22.686C65.5328 16.746 65.3568 12.368 65.1808 9.552C65.0488 6.736 64.8948 4.448 64.7188 2.688C65.8188 2.424 66.6768 2.248 67.2928 2.16C67.9528 2.072 68.6128 2.028 69.2728 2.028C70.2408 2.028 71.1868 2.16 72.1108 2.424C73.0788 2.688 73.9368 3.062 74.6848 3.546ZM122.095 55.29C120.907 56.082 119.521 56.72 117.937 57.204C116.397 57.688 114.505 58.084 112.261 58.392C111.821 54.828 111.315 51.506 110.743 48.426C110.215 45.302 109.621 42.354 108.961 39.582C106.101 39.582 103.373 39.67 100.777 39.846C98.2255 39.978 95.8055 40.198 93.5175 40.506C92.5935 42.882 91.6915 45.082 90.8115 47.106C89.9315 49.13 89.0295 51.022 88.1055 52.782C86.4335 52.474 84.8715 51.946 83.4195 51.198C82.0115 50.45 80.8675 49.548 79.9875 48.492C83.6395 41.848 86.7195 35.27 89.2275 28.758C91.7355 22.202 94.2435 14.04 96.7515 4.272C98.4675 4.316 100.007 4.426 101.371 4.602C102.735 4.734 104.209 4.976 105.793 5.328C109.753 12.236 113.053 19.76 115.693 27.9C118.377 35.996 120.511 45.126 122.095 55.29ZM101.107 15.756C100.315 18.924 99.4795 22.004 98.5995 24.996C97.7635 27.988 96.8835 30.848 95.9595 33.576C97.9835 33.312 99.9195 33.114 101.767 32.982C103.615 32.806 105.419 32.696 107.179 32.652C106.299 29.572 105.353 26.624 104.341 23.808C103.329 20.992 102.251 18.308 101.107 15.756ZM159.195 43.806C159.195 45.654 159.041 47.392 158.733 49.02C158.469 50.604 158.051 52.034 157.479 53.31C152.419 53.266 146.853 52.98 140.781 52.452C134.709 51.968 129.297 51.352 124.545 50.604C124.545 49.02 124.611 47.546 124.743 46.182C124.919 44.818 125.139 43.674 125.403 42.75C130.683 37.338 135.237 32.278 139.065 27.57C142.893 22.818 146.303 18.022 149.295 13.182C146.039 13.006 142.717 12.742 139.329 12.39C135.941 11.994 132.113 11.488 127.845 10.872C127.845 9.068 127.999 7.484 128.307 6.12C128.659 4.756 129.209 3.414 129.957 2.094C135.281 3.106 140.561 4.052 145.797 4.932C151.077 5.812 156.225 6.626 161.241 7.374C160.889 10.014 160.625 11.752 160.449 12.588C160.273 13.38 160.075 14.018 159.855 14.502C156.907 18.814 153.343 23.434 149.163 28.362C144.983 33.246 140.033 38.636 134.313 44.532C138.713 44.664 142.915 44.686 146.919 44.598C150.967 44.466 155.059 44.202 159.195 43.806ZM177.205 17.34C177.205 23.104 177.117 28.956 176.941 34.896C176.765 40.836 176.501 46.534 176.149 51.99C175.269 52.254 174.015 52.474 172.387 52.65C170.803 52.87 169.307 52.98 167.899 52.98C167.943 44.048 167.811 35.776 167.503 28.164C167.195 20.552 166.711 13.644 166.051 7.44C166.887 6.912 167.833 6.516 168.889 6.252C169.989 5.944 171.133 5.79 172.321 5.79C173.201 5.79 173.993 5.834 174.697 5.922C175.401 6.01 176.149 6.142 176.941 6.318C177.029 7.858 177.095 9.53 177.139 11.334C177.183 13.094 177.205 15.096 177.205 17.34ZM195.883 35.49C195.883 37.074 195.905 38.79 195.949 40.638C195.993 42.486 196.125 46.556 196.345 52.848C195.421 53.112 194.167 53.332 192.583 53.508C191.043 53.684 189.591 53.794 188.227 53.838C187.391 43.762 186.775 34.962 186.379 27.438C185.983 19.87 185.785 13.138 185.785 7.242C185.873 7.154 186.027 7.066 186.247 6.978C186.467 6.846 186.621 6.758 186.709 6.714C188.073 6.01 189.569 5.46 191.197 5.064C192.869 4.624 194.651 4.338 196.543 4.206C199.931 8.87 202.901 13.534 205.453 18.198C208.049 22.862 210.469 27.944 212.713 33.444C212.713 32.52 212.713 31.596 212.713 30.672C212.713 29.704 212.713 28.758 212.713 27.834C212.713 22.026 212.603 17.01 212.383 12.786C212.207 8.562 211.921 5.152 211.525 2.556C213.197 2.028 214.869 1.632 216.541 1.368C218.257 1.06 219.995 0.883996 221.755 0.839997C221.887 3.392 221.975 5.812 222.019 8.1C222.063 10.388 222.085 12.61 222.085 14.766C222.085 20.618 221.975 26.382 221.755 32.058C221.535 37.734 221.205 43.41 220.765 49.086C219.049 49.394 217.487 49.636 216.079 49.812C214.671 49.944 213.285 50.032 211.921 50.076C208.841 42.728 206.069 36.722 203.605 32.058C201.185 27.394 198.611 23.148 195.883 19.32C195.839 21.872 195.817 24.512 195.817 27.24C195.817 29.968 195.839 32.718 195.883 35.49ZM262.791 27.9C262.703 32.08 262.901 36.172 263.385 40.176C263.913 44.18 264.727 48.162 265.827 52.122C264.947 52.342 263.913 52.518 262.725 52.65C261.581 52.826 260.151 52.98 258.435 53.112C257.907 51.924 257.401 50.692 256.917 49.416C256.477 48.14 256.037 46.798 255.597 45.39C253.925 47.766 252.033 49.526 249.921 50.67C247.853 51.814 245.521 52.386 242.925 52.386C238.613 52.386 235.181 50.626 232.629 47.106C230.121 43.586 228.867 38.812 228.867 32.784C228.867 24.336 230.737 17.296 234.477 11.664C238.261 6.032 243.057 3.216 248.865 3.216C252.869 3.216 256.059 4.536 258.435 7.176C260.811 9.816 262.131 13.446 262.395 18.066C260.899 18.55 259.337 18.902 257.709 19.122C256.125 19.342 254.343 19.452 252.363 19.452C252.055 16.02 251.439 13.512 250.515 11.928C249.635 10.3 248.425 9.486 246.885 9.486C244.641 9.486 242.815 11.356 241.407 15.096C239.999 18.836 239.295 23.698 239.295 29.682C239.295 34.654 239.845 38.394 240.945 40.902C242.089 43.366 243.805 44.598 246.093 44.598C247.765 44.598 249.261 43.982 250.581 42.75C251.901 41.518 252.957 39.758 253.749 37.47C253.529 36.326 253.331 35.094 253.155 33.774C253.023 32.454 252.891 30.87 252.759 29.022C254.123 28.626 255.619 28.34 257.247 28.164C258.875 27.988 260.723 27.9 262.791 27.9ZM294.232 36.546C294.276 39.714 294.364 42.816 294.496 45.852C294.672 48.844 294.87 52.056 295.09 55.488C293.682 55.532 292.186 55.488 290.602 55.356C289.018 55.268 287.654 55.114 286.51 54.894C285.762 47.37 285.212 40.572 284.86 34.5C284.552 28.384 284.398 22.048 284.398 15.492C284.398 13.996 284.442 12.324 284.53 10.476C284.618 8.584 284.728 6.78 284.86 5.064C287.148 4.096 289.656 3.348 292.384 2.82C295.156 2.292 297.84 2.028 300.436 2.028C305.804 2.028 309.94 3.172 312.844 5.46C315.792 7.704 317.266 10.85 317.266 14.898C317.266 19.694 315.264 23.962 311.26 27.702C307.3 31.442 301.624 34.39 294.232 36.546ZM307.036 16.614C307.036 13.842 306.332 11.708 304.924 10.212C303.516 8.672 301.47 7.902 298.786 7.902C298.214 7.902 297.642 7.946 297.07 8.034C296.498 8.078 295.926 8.166 295.354 8.298C295.046 11.774 294.804 15.294 294.628 18.858C294.452 22.378 294.32 26.052 294.232 29.88C298.5 28.824 301.69 27.196 303.802 24.996C305.958 22.752 307.036 19.958 307.036 16.614ZM351.521 4.206C352.533 8.518 353.237 12.324 353.633 15.624C354.073 18.88 354.293 22.004 354.293 24.996C354.293 35.336 352.731 43.146 349.607 48.426C346.527 53.662 341.907 56.28 335.747 56.28C331.039 56.28 327.497 54.366 325.121 50.538C322.745 46.666 321.557 40.924 321.557 33.312C321.557 29 321.909 24.512 322.613 19.848C323.361 15.184 324.175 11.84 325.055 9.816C325.759 9.64 326.573 9.486 327.497 9.354C328.421 9.222 329.301 9.156 330.137 9.156C331.061 9.156 331.875 9.222 332.579 9.354C333.327 9.486 333.943 9.662 334.427 9.882C333.679 13.49 333.107 17.12 332.711 20.772C332.359 24.424 332.183 27.9 332.183 31.2C332.183 37.36 332.601 41.98 333.437 45.06C334.317 48.096 335.615 49.614 337.331 49.614C339.399 49.614 341.005 47.744 342.149 44.004C343.337 40.264 343.931 35.16 343.931 28.692C343.931 25.084 343.689 21.388 343.205 17.604C342.721 13.82 341.995 9.97 341.027 6.054C342.347 5.526 343.975 5.108 345.911 4.8C347.847 4.448 349.717 4.25 351.521 4.206ZM396.67 49.152C395.614 50.164 394.316 51.088 392.776 51.924C391.236 52.76 389.564 53.42 387.76 53.904C385.164 47.876 383.052 43.322 381.424 40.242C379.84 37.162 378.124 34.302 376.276 31.662C375.176 32.058 374.34 32.344 373.768 32.52C373.24 32.696 372.734 32.85 372.25 32.982C372.118 36.458 371.964 39.714 371.788 42.75C371.612 45.786 371.392 48.668 371.128 51.396C369.808 51.44 368.356 51.396 366.772 51.264C365.188 51.176 363.802 51.044 362.614 50.868C362.746 48.492 362.834 46.512 362.878 44.928C362.922 43.344 362.944 41.76 362.944 40.176C362.944 34.28 362.79 28.67 362.482 23.346C362.174 18.022 361.646 12.016 360.898 5.328C362.922 3.744 365.32 2.49 368.092 1.566C370.864 0.641998 373.592 0.179997 376.276 0.179997C381.468 0.179997 385.494 1.39 388.354 3.81C391.258 6.186 392.71 9.464 392.71 13.644C392.71 16.548 391.94 19.21 390.4 21.63C388.904 24.05 386.682 26.206 383.734 28.098C385.978 30.65 388.134 33.642 390.202 37.074C392.314 40.462 394.47 44.488 396.67 49.152ZM371.722 6.648C371.942 11.18 372.096 14.788 372.184 17.472C372.272 20.112 372.316 22.62 372.316 24.996C372.316 25.304 372.316 25.612 372.316 25.92C372.316 26.184 372.316 26.47 372.316 26.778C375.792 25.81 378.366 24.358 380.038 22.422C381.71 20.442 382.546 17.89 382.546 14.766C382.546 12.038 381.886 9.926 380.566 8.43C379.29 6.89 377.442 6.12 375.022 6.12C374.494 6.12 373.944 6.164 373.372 6.252C372.844 6.34 372.294 6.472 371.722 6.648ZM411.021 36.546C411.065 39.714 411.153 42.816 411.285 45.852C411.461 48.844 411.659 52.056 411.879 55.488C410.471 55.532 408.975 55.488 407.391 55.356C405.807 55.268 404.443 55.114 403.299 54.894C402.551 47.37 402.001 40.572 401.649 34.5C401.341 28.384 401.187 22.048 401.187 15.492C401.187 13.996 401.231 12.324 401.319 10.476C401.407 8.584 401.517 6.78 401.649 5.064C403.937 4.096 406.445 3.348 409.173 2.82C411.945 2.292 414.629 2.028 417.225 2.028C422.593 2.028 426.729 3.172 429.633 5.46C432.581 7.704 434.055 10.85 434.055 14.898C434.055 19.694 432.053 23.962 428.049 27.702C424.089 31.442 418.413 34.39 411.021 36.546ZM423.825 16.614C423.825 13.842 423.121 11.708 421.713 10.212C420.305 8.672 418.259 7.902 415.575 7.902C415.003 7.902 414.431 7.946 413.859 8.034C413.287 8.078 412.715 8.166 412.143 8.298C411.835 11.774 411.593 15.294 411.417 18.858C411.241 22.378 411.109 26.052 411.021 29.88C415.289 28.824 418.479 27.196 420.591 24.996C422.747 22.752 423.825 19.958 423.825 16.614ZM469.143 48.096C469.407 49.108 469.649 50.384 469.869 51.924C470.133 53.464 470.265 54.74 470.265 55.752C465.865 55.796 461.751 55.95 457.923 56.214C454.095 56.522 449.629 57.028 444.525 57.732C443.425 50.208 442.523 41.738 441.819 32.322C441.159 22.906 440.851 14.7 440.895 7.704C442.303 7.264 443.711 6.956 445.119 6.78C446.571 6.56 448.045 6.45 449.541 6.45C450.025 6.45 450.487 6.472 450.927 6.516C451.411 6.516 451.873 6.56 452.313 6.648C452.005 9.156 451.763 12.126 451.587 15.558C451.411 18.99 451.345 22.62 451.389 26.448C451.389 31.64 451.499 36.084 451.719 39.78C451.939 43.476 452.291 46.886 452.775 50.01C455.327 49.394 458.033 48.932 460.893 48.624C463.797 48.272 466.547 48.096 469.143 48.096ZM504.016 51.726C501.552 52.21 497.526 52.65 491.938 53.046C486.35 53.486 481.378 53.728 477.022 53.772C475.834 45.984 474.8 37.558 473.92 28.494C473.084 19.43 472.622 11.862 472.534 5.79C478.826 4.602 484.216 3.766 488.704 3.282C493.236 2.798 497.812 2.534 502.432 2.49C502.432 3.766 502.344 5.086 502.168 6.45C502.036 7.814 501.816 9.222 501.508 10.674C498.34 10.718 495.304 10.806 492.4 10.938C489.496 11.07 486.68 11.268 483.952 11.532C483.864 13.38 483.798 15.36 483.754 17.472C483.71 19.584 483.71 21.806 483.754 24.138C486.35 23.522 488.858 23.038 491.278 22.686C493.698 22.334 496.184 22.114 498.736 22.026C499 23.126 499.198 24.292 499.33 25.524C499.462 26.756 499.528 28.208 499.528 29.88C496.316 30.012 493.5 30.166 491.08 30.342C488.66 30.518 486.306 30.782 484.018 31.134C484.194 34.61 484.37 37.492 484.546 39.78C484.766 42.068 485.008 44.18 485.272 46.116C487.604 46.028 490.574 45.786 494.182 45.39C497.834 44.95 500.826 44.488 503.158 44.004C503.422 44.796 503.642 45.984 503.818 47.568C503.994 49.152 504.06 50.538 504.016 51.726Z" fill="black"/>
</svg>
